<?xml version="1.0" encoding="utf-8"?>
<!-- Generator: Adobe Illustrator 23.0.0, SVG Export Plug-In . SVG Version: 6.00 Build 0)  -->
<svg version="1.1" id="图层_1" xmlns="http://www.w3.org/2000/svg" xmlns:xlink="http://www.w3.org/1999/xlink" x="0px" y="0px"
	 viewBox="0 0 193.7 53.7" style="enable-background:new 0 0 193.7 53.7;" xml:space="preserve">
<style type="text/css">
	.st0{fill:url(#SVGID_1_);}
	.st1{fill:url(#SVGID_2_);}
	.st2{fill:url(#SVGID_3_);}
	.st3{fill:url(#SVGID_4_);}
	.st4{fill:url(#SVGID_5_);}
	.st5{fill:#3A3A3A;}
</style>
<g>
	
		<linearGradient id="SVGID_1_" gradientUnits="userSpaceOnUse" x1="2.7912" y1="28.8392" x2="115.0834" y2="30.7662" gradientTransform="matrix(1 0 0 -1 0 56)">
		<stop  offset="0" style="stop-color:#6A11CB"/>
		<stop  offset="1" style="stop-color:#2575FC"/>
	</linearGradient>
	<path class="st0" d="M20,53.7c-5.1,0-9.7-0.6-13.6-2.4c-3.6-1.7-4.4-6.5-1.6-9.3L5,41.7c1.7-1.7,4.2-2.2,6.4-1.3
		c2.6,1.2,5.8,1.6,8.7,1.6c5.1,0,7.6-1.7,7.6-4.7c0-1.3-0.3-2.3-1-3.1c-0.7-0.7-1.8-1.2-3.5-1.4L16.8,32c-4.7-0.7-8.2-2.2-10.6-4.7
		s-3.6-6.1-3.6-10.6C2.5,7,9.8,0,21.8,0c4.1,0,7.7,0.5,10.8,1.7c3.9,1.5,5,6.5,2,9.5l0,0c-1.6,1.6-4.1,2.2-6.3,1.3
		c-2.6-1.2-5.4-1.1-7-1.1c-4.5,0-6.4,2.6-6.4,4.9c0,0.7,0.2,1.6,1,2.4c0.7,0.7,1.8,1.3,3.6,1.6l6.4,0.9c4.7,0.7,8.2,2.1,10.4,4.4
		c2.8,2.7,3.9,6.7,3.9,11.6C40.4,47.8,31.1,53.7,20,53.7z"/>
	
		<linearGradient id="SVGID_2_" gradientUnits="userSpaceOnUse" x1="-0.3692" y1="35.4954" x2="121.0834" y2="37.5796" gradientTransform="matrix(1 0 0 -1 0 56)">
		<stop  offset="0" style="stop-color:#6A11CB"/>
		<stop  offset="1" style="stop-color:#2575FC"/>
	</linearGradient>
	<path class="st1" d="M76.8,33.7c-2.4,2.5-6.4,5.1-12.8,5.1s-10.5-2.6-12.8-5.1c-3.3-3.6-4.4-6.4-4.4-14.3c0-7.8,1-10.6,4.4-14.3
		C53.5,2.6,57.5,0,64,0s10.5,2.6,12.8,5.1c3.3,3.6,4.4,6.5,4.4,14.3C81.2,27.2,80.1,30,76.8,33.7z M67.2,12.1
		C66.5,11.3,65.5,11,64,11s-2.5,0.4-3.3,1.1c-1.6,1.6-1.8,3.4-1.8,7.3s0.2,5.7,1.8,7.3c0.7,0.7,1.8,1.1,3.3,1.1s2.5-0.4,3.3-1.1
		c1.6-1.6,1.8-3.4,1.8-7.3S68.8,13.6,67.2,12.1z"/>
	
		<linearGradient id="SVGID_3_" gradientUnits="userSpaceOnUse" x1="-0.3572" y1="34.7955" x2="121.0954" y2="36.8797" gradientTransform="matrix(1 0 0 -1 0 56)">
		<stop  offset="0" style="stop-color:#6A11CB"/>
		<stop  offset="1" style="stop-color:#2575FC"/>
	</linearGradient>
	<path class="st2" d="M117.6,33.7c-2.4,2.5-6.4,5.1-12.8,5.1S94.3,36.2,92,33.7c-3.3-3.6-4.4-6.4-4.4-14.3c0-7.8,1-10.6,4.4-14.3
		C94.3,2.6,98.3,0,104.8,0s10.5,2.6,12.8,5.1c3.3,3.6,4.4,6.5,4.4,14.3C122,27.2,120.9,30,117.6,33.7z M108,12.1
		c-0.7-0.7-1.8-1.1-3.3-1.1s-2.5,0.4-3.3,1.1c-1.6,1.6-1.8,3.4-1.8,7.3s0.2,5.7,1.8,7.3c0.7,0.7,1.8,1.1,3.3,1.1s2.5-0.4,3.3-1.1
		c1.6-1.6,1.8-3.4,1.8-7.3S109.6,13.6,108,12.1z"/>
	
		<linearGradient id="SVGID_4_" gradientUnits="userSpaceOnUse" x1="9.9504" y1="6.7868" x2="112.8127" y2="8.552" gradientTransform="matrix(1 0 0 -1 0 56)">
		<stop  offset="0" style="stop-color:#6A11CB"/>
		<stop  offset="1" style="stop-color:#2575FC"/>
	</linearGradient>
	<path class="st3" d="M74.1,53.7c3,0,4.7-3.6,2.7-5.8c0,0,0,0,0-0.1c-2.4-2.5-6.4-5.1-12.8-5.1s-10.5,2.6-12.8,5.1c0,0,0,0,0,0.1
		c-2,2.3-0.3,5.8,2.7,5.8H74.1z"/>
	
		<linearGradient id="SVGID_5_" gradientUnits="userSpaceOnUse" x1="16.2057" y1="6.194" x2="119.068" y2="7.9592" gradientTransform="matrix(1 0 0 -1 0 56)">
		<stop  offset="0" style="stop-color:#6A11CB"/>
		<stop  offset="1" style="stop-color:#2575FC"/>
	</linearGradient>
	<path class="st4" d="M114.9,53.7c3,0,4.7-3.6,2.7-5.8c0,0,0,0,0-0.1c-2.4-2.5-6.4-5.1-12.8-5.1S94.3,45.3,92,47.8c0,0,0,0,0,0.1
		c-2,2.3-0.3,5.8,2.7,5.8H114.9z"/>
</g>
<g>
	<path class="st5" d="M157.9,34.4c0,4.9-2.8,7.7-7.1,7.7s-7-2.8-7-7.7V6.5c0-3.6-2.9-6.5-6.5-6.5l0,0c-3.6,0-6.5,2.9-6.5,6.5v28.2
		c0,11.6,9,19,19.9,19c11,0,20.1-7.4,20.1-19V6.5c0-3.6-2.9-6.5-6.5-6.5l0,0c-3.6,0-6.5,2.9-6.5,6.5v27.9H157.9z"/>
	<path class="st5" d="M187.2,0L187.2,0c3.6,0,6.5,2.9,6.5,6.5v40.7c0,3.6-2.9,6.5-6.5,6.5l0,0c-3.6,0-6.5-2.9-6.5-6.5V6.5
		C180.7,2.9,183.6,0,187.2,0z"/>
</g>
</svg>
